#N canvas 200 153 982 584 12;
#X obj 17 124 ensemble_routing;
#X obj 137 124 ensemble_routing;
#X obj 257 124 ensemble_routing;
#X obj 377 124 ensemble_routing;
#X obj 497 124 ensemble_routing;
#X obj 17 94 ensemble_logic, f 69;
#X obj 17 70 inlet;
#X obj 17 151 outlet~;
#X obj 137 151 outlet~;
#X obj 257 151 outlet~;
#X obj 377 151 outlet~;
#X obj 497 151 outlet~;
#X obj 127 187 outlet~;
#X obj 247 187 outlet~;
#X obj 367 187 outlet~;
#X obj 487 187 outlet~;
#X obj 607 187 outlet~;
#X connect 0 0 7 0;
#X connect 0 1 12 0;
#X connect 1 0 8 0;
#X connect 1 1 13 0;
#X connect 2 0 9 0;
#X connect 2 1 14 0;
#X connect 3 0 10 0;
#X connect 3 1 15 0;
#X connect 4 0 11 0;
#X connect 4 1 16 0;
#X connect 5 0 0 0;
#X connect 5 1 1 0;
#X connect 5 2 2 0;
#X connect 5 3 3 0;
#X connect 5 4 4 0;
#X connect 6 0 5 0;
