#N canvas 140 118 1579 690 12;
#X obj 27 60 inlet;
#X obj 27 119 sel 3 4 5;
#X obj 27 267 outlet;
#X msg 704 188 0 0 1 1 0 0 0 0 0 0;
#X obj 541 119 sel 3 4 5;
#X obj 541 267 outlet;
#X obj 1031 119 sel 3 4 5;
#X obj 1031 267 outlet;
#X obj 1521 119 sel 3 4 5;
#X obj 1521 267 outlet;
#X obj 2011 119 sel 3 4 5;
#X msg 190 188 1 1 0 0 0 0 0 0 0 0;
#X msg 343 188 1 1 0 0 0 0 0 0 0 0;
#X msg 858 188 0 0 1 1 0 0 0 0 0 0;
#X msg 1348 188 0 0 0 0 1 1 0 0 0 0;
#X msg 1839 187 0 0 0 0 0 0 1 1 0 0;
#X obj 2011 267 outlet;
#X msg 2011 187 0 0 0 0 0 0 0 0 0 0;
#X msg 2329 186 0 0 0 0 0 0 0 0 1 1;
#X msg 27 188 0 0 0 0 0 0 0 0 0 0;
#X msg 541 188 1 1 0 0 0 0 0 0 0 0;
#X msg 1031 188 0 0 1 1 0 0 0 0 0 0;
#X msg 1194 188 0 0 0 0 0 0 0 0 0 0;
#X msg 1521 188 0 0 0 0 1 1 0 0 0 0;
#X msg 1684 188 0 0 0 0 1 1 0 0 0 0;
#X msg 2174 187 0 0 0 0 0 0 1 1 0 0;
#X connect 0 0 1 0;
#X connect 0 0 4 0;
#X connect 0 0 6 0;
#X connect 0 0 8 0;
#X connect 0 0 10 0;
#X connect 1 0 19 0;
#X connect 1 1 11 0;
#X connect 1 2 12 0;
#X connect 3 0 5 0;
#X connect 4 0 20 0;
#X connect 4 1 3 0;
#X connect 4 2 13 0;
#X connect 6 0 21 0;
#X connect 6 1 22 0;
#X connect 6 2 14 0;
#X connect 8 0 23 0;
#X connect 8 1 24 0;
#X connect 8 2 15 0;
#X connect 10 0 17 0;
#X connect 10 1 25 0;
#X connect 10 2 18 0;
#X connect 11 0 2 0;
#X connect 12 0 2 0;
#X connect 13 0 5 0;
#X connect 14 0 7 0;
#X connect 15 0 9 0;
#X connect 17 0 16 0;
#X connect 18 0 16 0;
#X connect 19 0 2 0;
#X connect 20 0 5 0;
#X connect 21 0 7 0;
#X connect 22 0 7 0;
#X connect 23 0 9 0;
#X connect 24 0 9 0;
#X connect 25 0 16 0;
