#N canvas 74 104 1804 698 12;
#X obj 72 321 *~ 0;
#X obj 140 321 *~ 0;
#X obj 209 321 *~ 0;
#X obj 278 321 *~ 0;
#X obj 347 321 *~ 0;
#X obj 416 321 *~ 0;
#X obj 485 321 *~ 0;
#X obj 554 321 *~ 0;
#X obj 623 321 *~ 0;
#X obj 692 321 *~ 0;
#X obj 97 277 unpack f f f f f f f f f f, f 89;
#X obj 142 466 outlet~;
#X obj 389 458 outlet~;
#X obj 71 54 r~ pos1L;
#X obj 139 55 r~ pos1R;
#X obj 209 55 r~ pos2L;
#X obj 277 55 r~ pos2R;
#X obj 348 55 r~ pos3L;
#X obj 417 55 r~ pos3R;
#X obj 484 55 r~ pos4L;
#X obj 553 55 r~ pos4R;
#X obj 622 55 r~ pos5L;
#X obj 691 55 r~ pos5R;
#X obj 784 55 inlet;
#X connect 0 0 11 0;
#X connect 1 0 12 0;
#X connect 2 0 11 0;
#X connect 3 0 12 0;
#X connect 4 0 11 0;
#X connect 5 0 12 0;
#X connect 6 0 11 0;
#X connect 7 0 12 0;
#X connect 8 0 11 0;
#X connect 9 0 12 0;
#X connect 10 0 0 1;
#X connect 10 1 1 1;
#X connect 10 2 2 1;
#X connect 10 3 3 1;
#X connect 10 4 4 1;
#X connect 10 5 5 1;
#X connect 10 6 6 1;
#X connect 10 7 7 1;
#X connect 10 8 8 1;
#X connect 10 9 9 1;
#X connect 13 0 0 0;
#X connect 14 0 1 0;
#X connect 15 0 2 0;
#X connect 16 0 3 0;
#X connect 17 0 4 0;
#X connect 18 0 5 0;
#X connect 19 0 6 0;
#X connect 20 0 7 0;
#X connect 21 0 8 0;
#X connect 22 0 9 0;
#X connect 23 0 10 0;
