#N canvas 423 317 884 680 12;
#X floatatom 341 141 5 0 0 0 - - - 0;
#N canvas 105 285 1704 689 monitor_headphones 0;
#X obj 138 55 inlet~;
#X obj 205 55 inlet~;
#X obj 272 55 inlet~;
#X obj 340 55 inlet~;
#X msg 700 202 1 1 0 0 0 0 0 0 0 0;
#X obj 761 103 sel 1 2 3 4 5;
#X obj 76 321 *~ 0;
#X obj 406 55 inlet~;
#X obj 484 55 inlet~;
#X obj 551 55 inlet~;
#X obj 618 55 inlet~;
#X obj 686 55 inlet~;
#X obj 145 321 *~ 0;
#X obj 208 321 *~ 0;
#X obj 284 321 *~ 0;
#X obj 349 321 *~ 0;
#X obj 404 321 *~ 0;
#X obj 478 321 *~ 0;
#X obj 573 321 *~ 0;
#X obj 626 321 *~ 0;
#X obj 688 321 *~ 0;
#X obj 97 277 unpack f f f f f f f f f f, f 89;
#X obj 142 466 outlet~;
#X obj 389 458 outlet~;
#X msg 863 202 0 0 1 1 0 0 0 0 0 0;
#X msg 1017 202 0 0 0 0 1 1 0 0 0 0;
#X msg 1182 202 0 0 0 0 0 0 1 1 0 0;
#X msg 1336 202 0 0 0 0 0 0 0 0 1 1;
#X obj 913 68 print hp_inlet;
#X obj 37 54 inlet~ fwd;
#X obj 747 44 inlet;
#X connect 0 0 12 0;
#X connect 1 0 13 0;
#X connect 2 0 14 0;
#X connect 3 0 15 0;
#X connect 4 0 21 0;
#X connect 5 0 4 0;
#X connect 5 1 24 0;
#X connect 5 2 25 0;
#X connect 5 3 26 0;
#X connect 5 4 27 0;
#X connect 6 0 22 0;
#X connect 7 0 16 0;
#X connect 8 0 17 0;
#X connect 9 0 18 0;
#X connect 10 0 19 0;
#X connect 11 0 20 0;
#X connect 12 0 23 0;
#X connect 13 0 22 0;
#X connect 14 0 23 0;
#X connect 15 0 22 0;
#X connect 16 0 23 0;
#X connect 17 0 22 0;
#X connect 18 0 23 0;
#X connect 19 0 22 0;
#X connect 20 0 23 0;
#X connect 21 0 6 1;
#X connect 21 1 12 1;
#X connect 21 2 13 1;
#X connect 21 3 14 1;
#X connect 21 4 15 1;
#X connect 21 5 16 1;
#X connect 21 6 17 1;
#X connect 21 7 18 1;
#X connect 21 8 19 1;
#X connect 21 9 20 1;
#X connect 24 0 21 0;
#X connect 25 0 21 0;
#X connect 26 0 21 0;
#X connect 27 0 21 0;
#X connect 29 0 6 0;
#X connect 29 1 5 0;
#X connect 30 0 5 0;
#X connect 30 0 28 0;
#X restore 24 980 pd monitor_headphones;
#X obj 24 1013 dac~ 7 8, f 21;
#X text 339 112 Headphone for Monitoring;
#X obj 340 181 s hpm;
#X obj 168 928 r hpm;
#X connect 0 0 4 0;
#X connect 1 0 2 0;
#X connect 1 1 2 1;
#X connect 5 0 1 10;
