#N canvas 66 36 1658 955 12;
#X declare -path ../externals;
#X declare -path ../externals/ssr;
#X obj 11 11 declare -path ../externals;
#X obj 11 34 declare -path ../externals/ssr;
#X obj 11 121 source_player;
#X obj 11 560 osc_receiver 1;
#X obj 365 561 osc_receiver 2;
#X obj 714 560 osc_receiver 3;
#X obj 1060 558 osc_receiver 4;
#X text 3229 880 comment;
#X obj 239 1790 print;
#X msg 12 774 src1-yaw \$1;
#X obj 45 838 r~ src1;
#X obj 100 838 r~ src2;
#X obj 155 838 r~ src3;
#X obj 210 838 r~ src4;
#X obj 394 834 r~ src1;
#X obj 504 834 r~ src3;
#X obj 559 834 r~ src4;
#X msg 365 770 src2-yaw \$1;
#X obj 736 831 r~ src1;
#X obj 791 831 r~ src2;
#X obj 846 831 r~ src3;
#X obj 901 831 r~ src4;
#X msg 714 766 src3-yaw \$1;
#X obj 1081 831 r~ src1;
#X obj 1136 831 r~ src2;
#X obj 1191 831 r~ src3;
#X obj 1246 831 r~ src4;
#X msg 1060 764 src4-yaw \$1;
#X obj 31 748 loadbang;
#X obj 381 745 loadbang;
#X obj 726 742 loadbang;
#X obj 1072 740 loadbang;
#X obj 1433 829 r~ src1;
#X obj 1488 829 r~ src2;
#X obj 1543 829 r~ src3;
#X obj 1598 829 r~ src4;
#X obj 1424 738 loadbang;
#X obj 1412 556 osc_receiver 5;
#X msg 1412 762 src5-yaw \$1;
#X obj 12 331 source_input;
#X obj 11 56 tracking_inversion;
#X msg 31 798 pd~ start ../externals/convolver_5_subheader_id1.pd, f 43;
#X msg 381 794 pd~ start ../externals/convolver_5_subheader_id2.pd, f 42;
#X msg 726 790 pd~ start ../externals/convolver_5_subheader_id3.pd, f 42;
#X msg 1072 790 pd~ start ../externals/convolver_5_subheader_id4.pd, f 42;
#X msg 1424 788 pd~ start ../externals/convolver_5_subheader_id5.pd, f 42;
#X obj 265 838 r~ src5;
#X obj 449 834 r~ src2;
#X obj 615 834 r~ src5;
#X obj 956 831 r~ src5;
#X obj 1302 833 r~ src5;
#X obj 1654 829 r~ src5;
#X obj 44 862 pd~ -ninsig 5 -noutsig 2 -fifo 2;
#X obj 393 858 pd~ -ninsig 5 -noutsig 2 -fifo 2;
#X obj 735 855 pd~ -ninsig 5 -noutsig 2 -fifo 2;
#X obj 1080 855 pd~ -ninsig 5 -noutsig 2 -fifo 2;
#X obj 1432 853 pd~ -ninsig 5 -noutsig 2 -fifo 2;
#X floatatom 319 141 5 0 0 0 - - - 0;
#N canvas 52 76 1704 689 monitor_headphones 0;
#X msg 700 202 1 1 0 0 0 0 0 0 0 0;
#X msg 863 202 0 0 1 1 0 0 0 0 0 0;
#X msg 1017 202 0 0 0 0 1 1 0 0 0 0;
#X msg 1182 202 0 0 0 0 0 0 1 1 0 0;
#X msg 1336 202 0 0 0 0 0 0 0 0 1 1;
#X obj 761 44 inlet;
#X obj 761 103 sel 1 2 3 4 5 0;
#X msg 1488 201 0 0 0 0 0 0 0 0 0 0;
#X obj 19 310 *~ 0;
#X obj 87 310 *~ 0;
#X obj 156 310 *~ 0;
#X obj 225 310 *~ 0;
#X obj 294 310 *~ 0;
#X obj 363 310 *~ 0;
#X obj 432 310 *~ 0;
#X obj 501 310 *~ 0;
#X obj 570 310 *~ 0;
#X obj 639 310 *~ 0;
#X obj 44 266 unpack f f f f f f f f f f, f 89;
#X obj 89 455 outlet~;
#X obj 336 447 outlet~;
#X obj 18 43 r~ pos1L;
#X obj 86 44 r~ pos1R;
#X obj 156 44 r~ pos2L;
#X obj 224 44 r~ pos2R;
#X obj 295 44 r~ pos3L;
#X obj 364 44 r~ pos3R;
#X obj 431 44 r~ pos4L;
#X obj 500 44 r~ pos4R;
#X obj 569 44 r~ pos5L;
#X obj 638 44 r~ pos5R;
#X connect 0 0 18 0;
#X connect 1 0 18 0;
#X connect 2 0 18 0;
#X connect 3 0 18 0;
#X connect 4 0 18 0;
#X connect 5 0 6 0;
#X connect 6 0 0 0;
#X connect 6 1 1 0;
#X connect 6 2 2 0;
#X connect 6 3 3 0;
#X connect 6 4 4 0;
#X connect 6 5 7 0;
#X connect 7 0 18 0;
#X connect 8 0 19 0;
#X connect 9 0 20 0;
#X connect 10 0 19 0;
#X connect 11 0 20 0;
#X connect 12 0 19 0;
#X connect 13 0 20 0;
#X connect 14 0 19 0;
#X connect 15 0 20 0;
#X connect 16 0 19 0;
#X connect 17 0 20 0;
#X connect 18 0 8 1;
#X connect 18 1 9 1;
#X connect 18 2 10 1;
#X connect 18 3 11 1;
#X connect 18 4 12 1;
#X connect 18 5 13 1;
#X connect 18 6 14 1;
#X connect 18 7 15 1;
#X connect 18 8 16 1;
#X connect 18 9 17 1;
#X connect 21 0 8 0;
#X connect 22 0 9 0;
#X connect 23 0 10 0;
#X connect 24 0 11 0;
#X connect 25 0 12 0;
#X connect 26 0 13 0;
#X connect 27 0 14 0;
#X connect 28 0 15 0;
#X connect 29 0 16 0;
#X connect 30 0 17 0;
#X restore 13 1091 pd monitor_headphones;
#X obj 11 1145 dac~ 7 8, f 21;
#X obj 319 162 s hpm;
#X obj 13 1059 r hpm;
#X text 509 255 Loopback for Recording;
#X obj 509 276 adc~ 15 16 17 18 19 21 22;
#X obj 349 1057 unpack 0 0 0 0 0;
#X text 346 960 Headphone Gain Correction;
#X obj 349 1010 loadbang;
#X msg 370 986 -1.97 5.8 0 -1.31 -1.05;
#X obj 521 1034 *~ 0.005;
#X text 348 987 dB;
#X text 519 1008 calibrated with noise at;
#X obj 240 1121 stereo_gain, f 16;
#X obj 364 1120 stereo_gain, f 16;
#X obj 489 1121 stereo_gain, f 17;
#X obj 616 1121 stereo_gain, f 16;
#X obj 740 1121 stereo_gain, f 16;
#X obj 12 1121 stereo_gain, f 21;
#X floatatom 176 1146 5 0 0 0 - - - 0;
#X obj 176 1102 loadbang;
#X obj 240 1145 dac~ 15 16, f 16;
#X obj 364 1145 dac~ 17 18, f 16;
#X obj 488 1145 dac~ 19 20, f 17;
#X obj 616 1145 dac~ 9 10, f 16;
#X obj 740 1145 dac~ 11 12, f 16;
#X obj 153 886 s~ pos1L;
#X obj 264 886 s~ pos1R;
#X obj 502 886 s~ pos2L;
#X obj 613 886 s~ pos2R;
#X obj 846 886 s~ pos3L;
#X obj 957 886 s~ pos3R;
#X obj 1191 886 s~ pos4L;
#X obj 1301 886 s~ pos4R;
#X obj 1541 886 s~ pos5L;
#X obj 1652 886 s~ pos5R;
#X obj 240 1091 ensemble_changer, f 81;
#X floatatom 514 141 5 3 5 0 - - - 0;
#X text 513 116 Ensemble Type;
#X obj 514 162 s ens;
#X obj 240 1059 r ens;
#X obj 509 301 dac~ 1 2 3 4 5 0 0, f 25;
#X obj 319 524 osc_setter;
#X obj 319 501 r ens;
#X text 316 115 Player for Monitoring;
#X text 316 255 Calibration;
#X msg 176 1124 1;
#X msg 349 1034 0.8 1.19 1 0.86 0.89;
#X obj 316 26 loadbang;
#X msg 319 87 2;
#X msg 316 274 -0.92 3.32 2.89 -70 -70;
#X msg 514 92 3;
#X connect 2 0 39 0;
#X connect 2 0 39 1;
#X connect 2 0 39 2;
#X connect 2 0 39 3;
#X connect 2 0 39 4;
#X connect 3 0 9 0;
#X connect 4 0 17 0;
#X connect 5 0 22 0;
#X connect 6 0 27 0;
#X connect 9 0 52 0;
#X connect 10 0 52 0;
#X connect 11 0 52 1;
#X connect 12 0 52 2;
#X connect 13 0 52 3;
#X connect 14 0 53 0;
#X connect 15 0 53 2;
#X connect 16 0 53 3;
#X connect 17 0 53 0;
#X connect 18 0 54 0;
#X connect 19 0 54 1;
#X connect 20 0 54 2;
#X connect 21 0 54 3;
#X connect 22 0 54 0;
#X connect 23 0 55 0;
#X connect 24 0 55 1;
#X connect 25 0 55 2;
#X connect 26 0 55 3;
#X connect 27 0 55 0;
#X connect 28 0 41 0;
#X connect 29 0 42 0;
#X connect 30 0 43 0;
#X connect 31 0 44 0;
#X connect 32 0 56 0;
#X connect 33 0 56 1;
#X connect 34 0 56 2;
#X connect 35 0 56 3;
#X connect 36 0 45 0;
#X connect 37 0 38 0;
#X connect 38 0 56 0;
#X connect 41 0 52 0;
#X connect 42 0 53 0;
#X connect 43 0 54 0;
#X connect 44 0 55 0;
#X connect 45 0 56 0;
#X connect 46 0 52 4;
#X connect 47 0 53 1;
#X connect 48 0 53 4;
#X connect 49 0 54 4;
#X connect 50 0 55 4;
#X connect 51 0 56 4;
#X connect 52 1 84 0;
#X connect 52 2 85 0;
#X connect 53 1 86 0;
#X connect 53 2 87 0;
#X connect 54 1 88 0;
#X connect 54 2 89 0;
#X connect 55 1 90 0;
#X connect 55 2 91 0;
#X connect 56 1 92 0;
#X connect 56 2 93 0;
#X connect 57 0 60 0;
#X connect 58 0 76 0;
#X connect 58 1 76 1;
#X connect 61 0 58 0;
#X connect 63 0 99 0;
#X connect 63 1 99 1;
#X connect 63 2 99 2;
#X connect 63 3 99 3;
#X connect 63 4 99 4;
#X connect 63 5 99 5;
#X connect 63 6 99 6;
#X connect 64 0 71 2;
#X connect 64 1 72 2;
#X connect 64 2 73 2;
#X connect 64 3 74 2;
#X connect 64 4 75 2;
#X connect 66 0 105 0;
#X connect 71 0 79 0;
#X connect 71 1 79 1;
#X connect 72 0 80 0;
#X connect 72 1 80 1;
#X connect 73 0 81 0;
#X connect 73 1 81 1;
#X connect 74 0 82 0;
#X connect 74 1 82 1;
#X connect 75 0 83 0;
#X connect 75 1 83 1;
#X connect 76 0 59 0;
#X connect 76 1 59 1;
#X connect 77 0 76 2;
#X connect 78 0 104 0;
#X connect 94 0 71 0;
#X connect 94 1 71 1;
#X connect 94 2 72 0;
#X connect 94 3 72 1;
#X connect 94 4 73 0;
#X connect 94 5 73 1;
#X connect 94 6 74 0;
#X connect 94 7 74 1;
#X connect 94 8 75 0;
#X connect 94 9 75 1;
#X connect 95 0 97 0;
#X connect 98 0 94 0;
#X connect 100 0 3 2;
#X connect 100 1 4 2;
#X connect 100 2 5 2;
#X connect 100 3 6 2;
#X connect 100 4 37 2;
#X connect 101 0 100 0;
#X connect 104 0 77 0;
#X connect 105 0 64 0;
#X connect 106 0 108 0;
#X connect 106 0 107 0;
#X connect 106 0 109 0;
#X connect 107 0 57 0;
#X connect 108 0 39 5;
#X connect 109 0 95 0;
