#N canvas 52 20 1435 974 12;
#X declare -path ../externals;
#X declare -path ../externals/ssr;
#X obj 11 11 declare -path ../externals;
#X obj 11 34 declare -path ../externals/ssr;
#X obj 11 121 source_player;
#X obj 12 560 osc_receiver 1;
#X obj 365 561 osc_receiver 2;
#X obj 714 560 osc_receiver 3;
#X obj 1060 558 osc_receiver 4;
#X text 3229 880 comment;
#X obj 253 1788 print;
#X msg 12 774 src1-yaw \$1;
#X obj 45 838 r~ src1;
#X obj 100 838 r~ src2;
#X obj 155 838 r~ src3;
#X obj 210 838 r~ src4;
#X obj 394 834 r~ src1;
#X obj 504 834 r~ src3;
#X obj 559 834 r~ src4;
#X msg 365 770 src2-yaw \$1;
#X obj 736 831 r~ src1;
#X obj 791 831 r~ src2;
#X obj 846 831 r~ src3;
#X obj 901 831 r~ src4;
#X msg 714 766 src3-yaw \$1;
#X obj 1081 831 r~ src1;
#X obj 1136 831 r~ src2;
#X obj 1191 831 r~ src3;
#X obj 1246 831 r~ src4;
#X msg 1060 764 src4-yaw \$1;
#X obj 31 748 loadbang;
#X obj 381 745 loadbang;
#X obj 726 742 loadbang;
#X obj 1072 740 loadbang;
#X obj 1433 829 r~ src1;
#X obj 1488 829 r~ src2;
#X obj 1543 829 r~ src3;
#X obj 1598 829 r~ src4;
#X obj 1424 738 loadbang;
#X obj 1412 556 osc_receiver 5;
#X msg 1412 762 src5-yaw \$1;
#X obj 12 331 source_input;
#X obj 11 56 tracking_inversion;
#X msg 31 798 pd~ start ../externals/convolver_5_subheader_id1.pd, f 43;
#X msg 381 794 pd~ start ../externals/convolver_5_subheader_id2.pd, f 42;
#X msg 726 790 pd~ start ../externals/convolver_5_subheader_id3.pd, f 42;
#X msg 1072 790 pd~ start ../externals/convolver_5_subheader_id4.pd, f 42;
#X msg 1424 788 pd~ start ../externals/convolver_5_subheader_id5.pd, f 42;
#X obj 265 838 r~ src5;
#X obj 449 834 r~ src2;
#X obj 615 834 r~ src5;
#X obj 956 831 r~ src5;
#X obj 1302 833 r~ src5;
#X obj 1654 829 r~ src5;
#X obj 44 862 pd~ -ninsig 5 -noutsig 2 -fifo 2;
#X obj 393 858 pd~ -ninsig 5 -noutsig 2 -fifo 2;
#X obj 735 855 pd~ -ninsig 5 -noutsig 2 -fifo 2;
#X obj 1080 855 pd~ -ninsig 5 -noutsig 2 -fifo 2;
#X obj 1432 853 pd~ -ninsig 5 -noutsig 2 -fifo 2;
#X floatatom 319 141 5 0 0 0 - - - 0;
#N canvas -109 308 1704 689 monitor_headphones 0;
#X obj 138 55 inlet~;
#X obj 205 55 inlet~;
#X obj 272 55 inlet~;
#X obj 340 55 inlet~;
#X msg 700 202 1 1 0 0 0 0 0 0 0 0;
#X obj 76 321 *~ 0;
#X obj 406 55 inlet~;
#X obj 484 55 inlet~;
#X obj 551 55 inlet~;
#X obj 618 55 inlet~;
#X obj 686 55 inlet~;
#X obj 145 321 *~ 0;
#X obj 208 321 *~ 0;
#X obj 284 321 *~ 0;
#X obj 349 321 *~ 0;
#X obj 404 321 *~ 0;
#X obj 478 321 *~ 0;
#X obj 573 321 *~ 0;
#X obj 626 321 *~ 0;
#X obj 688 321 *~ 0;
#X obj 97 277 unpack f f f f f f f f f f, f 89;
#X obj 142 466 outlet~;
#X obj 389 458 outlet~;
#X msg 863 202 0 0 1 1 0 0 0 0 0 0;
#X msg 1017 202 0 0 0 0 1 1 0 0 0 0;
#X msg 1182 202 0 0 0 0 0 0 1 1 0 0;
#X msg 1336 202 0 0 0 0 0 0 0 0 1 1;
#X obj 913 68 print hp_inlet;
#X obj 37 54 inlet~ fwd;
#X obj 747 44 inlet;
#X obj 761 103 sel 1 2 3 4 5 0;
#X msg 1488 201 0 0 0 0 0 0 0 0 0 0;
#X connect 0 0 11 0;
#X connect 1 0 12 0;
#X connect 2 0 13 0;
#X connect 3 0 14 0;
#X connect 4 0 20 0;
#X connect 5 0 21 0;
#X connect 6 0 15 0;
#X connect 7 0 16 0;
#X connect 8 0 17 0;
#X connect 9 0 18 0;
#X connect 10 0 19 0;
#X connect 11 0 22 0;
#X connect 12 0 21 0;
#X connect 13 0 22 0;
#X connect 14 0 21 0;
#X connect 15 0 22 0;
#X connect 16 0 21 0;
#X connect 17 0 22 0;
#X connect 18 0 21 0;
#X connect 19 0 22 0;
#X connect 20 0 5 1;
#X connect 20 1 11 1;
#X connect 20 2 12 1;
#X connect 20 3 13 1;
#X connect 20 4 14 1;
#X connect 20 5 15 1;
#X connect 20 6 16 1;
#X connect 20 7 17 1;
#X connect 20 8 18 1;
#X connect 20 9 19 1;
#X connect 23 0 20 0;
#X connect 24 0 20 0;
#X connect 25 0 20 0;
#X connect 26 0 20 0;
#X connect 28 0 5 0;
#X connect 28 1 30 0;
#X connect 29 0 27 0;
#X connect 29 0 30 0;
#X connect 30 0 4 0;
#X connect 30 1 23 0;
#X connect 30 2 24 0;
#X connect 30 3 25 0;
#X connect 30 4 26 0;
#X connect 30 5 31 0;
#X connect 31 0 20 0;
#X restore 46 1088 pd monitor_headphones;
#X obj 46 1159 dac~ 7 8, f 21;
#X obj 319 162 s hpm;
#X obj 190 1008 r hpm;
#X text 320 245 Loopback for Recording;
#X obj 320 266 adc~ 15 16 17 18 19 21 22;
#X obj 1790 852 unpack 0 0 0 0 0;
#X text 1789 641 Headphone Gain Correction;
#X obj 1790 734 loadbang;
#X msg 1790 692 -1.97 5.8 0 -1.31 -1.05;
#X msg 1790 776 0.8 1.19 1 0.86 -0.89;
#X obj 2022 777 *~ 0.005;
#X text 1794 668 dB;
#X text 2020 751 calibrated with noise at;
#X floatatom 327 334 5 0 0 0 - - - 0;
#X obj 327 358 dbtorms;
#X floatatom 327 383 5 0 0 0 - - - 0;
#X obj 154 897 stereo_gain, f 16;
#X obj 504 893 stereo_gain, f 16;
#X obj 845 893 stereo_gain, f 17;
#X obj 1190 893 stereo_gain, f 16;
#X obj 1541 890 stereo_gain, f 16;
#X obj 45 1124 stereo_gain, f 21;
#X floatatom 217 1160 5 0 0 0 - - - 0;
#X obj 217 1108 loadbang;
#X msg 217 1135 15;
#X text 318 115 Position for Monitoring;
#X obj 806 411 *~ 0.005;
#X obj 154 921 dac~ 15 16, f 16;
#X obj 504 919 dac~ 17 18, f 16;
#X obj 844 919 dac~ 19 20, f 17;
#X obj 1190 919 dac~ 9 10, f 16;
#X obj 1541 919 dac~ 11 12, f 16;
#X obj 804 378 noise~;
#X obj 320 291 dac~ 1 2 3 4 5 7 8, f 25;
#X connect 2 0 39 0;
#X connect 2 0 39 1;
#X connect 2 0 39 2;
#X connect 2 0 39 3;
#X connect 2 0 39 4;
#X connect 3 0 9 0;
#X connect 4 0 17 0;
#X connect 5 0 22 0;
#X connect 6 0 27 0;
#X connect 9 0 52 0;
#X connect 10 0 52 0;
#X connect 11 0 52 1;
#X connect 12 0 52 2;
#X connect 13 0 52 3;
#X connect 14 0 53 0;
#X connect 15 0 53 2;
#X connect 16 0 53 3;
#X connect 17 0 53 0;
#X connect 18 0 54 0;
#X connect 19 0 54 1;
#X connect 20 0 54 2;
#X connect 21 0 54 3;
#X connect 22 0 54 0;
#X connect 23 0 55 0;
#X connect 24 0 55 1;
#X connect 25 0 55 2;
#X connect 26 0 55 3;
#X connect 27 0 55 0;
#X connect 28 0 41 0;
#X connect 29 0 42 0;
#X connect 30 0 43 0;
#X connect 31 0 44 0;
#X connect 32 0 56 0;
#X connect 33 0 56 1;
#X connect 34 0 56 2;
#X connect 35 0 56 3;
#X connect 36 0 45 0;
#X connect 37 0 38 0;
#X connect 38 0 56 0;
#X connect 41 0 52 0;
#X connect 42 0 53 0;
#X connect 43 0 54 0;
#X connect 44 0 55 0;
#X connect 45 0 56 0;
#X connect 46 0 52 4;
#X connect 47 0 53 1;
#X connect 48 0 53 4;
#X connect 49 0 54 4;
#X connect 50 0 55 4;
#X connect 51 0 56 4;
#X connect 52 1 58 0;
#X connect 52 1 75 0;
#X connect 52 2 58 1;
#X connect 52 2 75 1;
#X connect 53 1 58 2;
#X connect 53 1 76 0;
#X connect 53 2 58 3;
#X connect 53 2 76 1;
#X connect 54 1 58 4;
#X connect 54 1 77 0;
#X connect 54 2 58 5;
#X connect 54 2 77 1;
#X connect 55 1 58 6;
#X connect 55 1 78 0;
#X connect 55 2 58 7;
#X connect 55 2 78 1;
#X connect 56 1 58 8;
#X connect 56 1 79 0;
#X connect 56 2 58 9;
#X connect 56 2 79 1;
#X connect 57 0 60 0;
#X connect 58 0 80 0;
#X connect 58 1 80 1;
#X connect 61 0 58 10;
#X connect 63 0 92 0;
#X connect 63 1 92 1;
#X connect 63 2 92 2;
#X connect 63 3 92 3;
#X connect 63 4 92 4;
#X connect 63 5 92 5;
#X connect 63 6 92 6;
#X connect 64 0 75 2;
#X connect 64 0 87 0;
#X connect 64 1 76 2;
#X connect 64 2 77 2;
#X connect 64 3 78 2;
#X connect 64 4 79 2;
#X connect 66 0 68 0;
#X connect 68 0 64 0;
#X connect 72 0 73 0;
#X connect 73 0 74 0;
#X connect 75 0 86 0;
#X connect 75 1 86 1;
#X connect 76 0 87 0;
#X connect 76 1 87 1;
#X connect 77 0 88 0;
#X connect 77 1 88 1;
#X connect 78 0 89 0;
#X connect 78 1 89 1;
#X connect 79 0 90 0;
#X connect 79 1 90 1;
#X connect 80 0 59 0;
#X connect 80 1 59 1;
#X connect 81 0 80 2;
#X connect 82 0 83 0;
#X connect 83 0 81 0;
#X connect 85 0 88 0;
#X connect 85 0 88 1;
#X connect 91 0 85 0;
