#N canvas 350 292 873 490 12;
#X obj 8 42 sel 3 4 5;
#X msg 448 82 59001 59002 59003 59004 59005;
#X obj 8 11 inlet;
#X msg 8 82 59002 59003 59004 0 0;
#X msg 228 82 59001 59002 59004 59005 0;
#X obj 8 135 unpack f f f f f, f 29;
#X obj 8 182 outlet;
#X obj 58 182 outlet;
#X obj 108 182 outlet;
#X obj 158 182 outlet;
#X obj 208 182 outlet;
#X connect 0 0 3 0;
#X connect 0 1 4 0;
#X connect 0 2 1 0;
#X connect 1 0 5 0;
#X connect 2 0 0 0;
#X connect 3 0 5 0;
#X connect 4 0 5 0;
#X connect 5 0 6 0;
#X connect 5 1 7 0;
#X connect 5 2 8 0;
#X connect 5 3 9 0;
#X connect 5 4 10 0;
