#N canvas 673 577 450 300 12;
#X obj 60 47 inlet~;
#X obj 120 47 inlet~;
#X obj 264 5 inlet;
#X obj 60 72 *~ 1;
#X obj 60 97 outlet~;
#X obj 120 72 *~ 1;
#X obj 120 97 outlet~;
#X text 268 32 overall gain correction;
#X obj 263 55 * 15.84;
#X connect 0 0 3 0;
#X connect 1 0 5 0;
#X connect 2 0 8 0;
#X connect 3 0 4 0;
#X connect 5 0 6 0;
#X connect 8 0 5 1;
#X connect 8 0 3 1;
